HIERARCHY
ROOT root
{
	OFFSET 0.000000 0.000000 0.000000
	CHANNELS 6 Xposition Yposition Zposition Zrotation Yrotation Xrotation
	JOINT lhip
	{
		OFFSET 0.058581 -0.082280 -0.017664
		CHANNELS 3 Zrotation Yrotation Xrotation
		JOINT lknee
		{
			OFFSET 0.043451 -0.386469 0.008037
			CHANNELS 3 Zrotation Yrotation Xrotation
			JOINT lankle
			{
				OFFSET -0.014790 -0.426874 -0.037428
				CHANNELS 3 Zrotation Yrotation Xrotation
				JOINT ltoe
				{
					OFFSET 0.041054 -0.060286 0.122042
					CHANNELS 3 Zrotation Yrotation Xrotation
					End Site
					{
						OFFSET 0.000000 0.000000 0.000000
					}
				}
			}
		}
	}
	JOINT rhip
	{
		OFFSET -0.060310 -0.090513 -0.013543
		CHANNELS 3 Zrotation Yrotation Xrotation
		JOINT rknee
		{
			OFFSET -0.043257 -0.383688 -0.004843
			CHANNELS 3 Zrotation Yrotation Xrotation
			JOINT rankle
			{
				OFFSET 0.019056 -0.420046 -0.034562
				CHANNELS 3 Zrotation Yrotation Xrotation
				JOINT rtoe
				{
					OFFSET -0.034840 -0.062106 0.130323
					CHANNELS 3 Zrotation Yrotation Xrotation
					End Site
					{
						OFFSET 0.000000 0.000000 0.000000
					}
				}
			}
		}
	}
	JOINT lowerback
	{
		OFFSET 0.004439 0.124404 -0.038385
		CHANNELS 3 Zrotation Yrotation Xrotation
		JOINT upperback
		{
			OFFSET 0.004488 0.137956 0.026820
			CHANNELS 3 Zrotation Yrotation Xrotation
			JOINT chest
			{
				OFFSET -0.002265 0.056032 0.002855
				CHANNELS 3 Zrotation Yrotation Xrotation
				JOINT lowerneck
				{
					OFFSET -0.013390 0.211636 -0.033468
					CHANNELS 3 Zrotation Yrotation Xrotation
					JOINT upperneck
					{
						OFFSET 0.010113 0.088937 0.050410
						CHANNELS 3 Zrotation Yrotation Xrotation
						End Site
						{
							OFFSET 0.000000 0.000000 0.000000
						}
					}
				}
				JOINT lclavicle
				{
					OFFSET 0.071702 0.114000 -0.018898
					CHANNELS 3 Zrotation Yrotation Xrotation
					JOINT lshoulder
					{
						OFFSET 0.122921 0.045205 -0.019046
						CHANNELS 3 Zrotation Yrotation Xrotation
						JOINT lelbow
						{
							OFFSET 0.255332 -0.015649 -0.022946
							CHANNELS 3 Zrotation Yrotation Xrotation
							JOINT lwrist
							{
								OFFSET 0.265709 0.012698 -0.007375
								CHANNELS 3 Zrotation Yrotation Xrotation
								End Site
								{
									OFFSET 0.000000 0.000000 0.000000
								}
							}
						}
					}
				}
				JOINT rclavicle
				{
					OFFSET -0.082954 0.112472 -0.023707
					CHANNELS 3 Zrotation Yrotation Xrotation
					JOINT rshoulder
					{
						OFFSET -0.113228 0.046853 -0.008472
						CHANNELS 3 Zrotation Yrotation Xrotation
						JOINT relbow
						{
							OFFSET -0.260127 -0.014369 -0.031269
							CHANNELS 3 Zrotation Yrotation Xrotation
							JOINT rwrist
							{
								OFFSET -0.269108 0.006794 -0.006027
								CHANNELS 3 Zrotation Yrotation Xrotation
								End Site
								{
									OFFSET 0.000000 0.000000 0.000000
								}
							}
						}
					}
				}
			}
		}
	}
}
MOTION
Frames: 18
Frame Time: 0.033333
0.162748 -0.457735 0.998984 -9.880097 1.460594 89.026111 0.830509 0.259902 -2.203183 -4.669967 -4.306284 4.753124 2.927579 11.456873 -8.763390 0.000000 -0.000000 0.000000 0.673489 1.091212 -4.712398 1.257357 4.276441 10.694914 3.123821 -3.213629 -7.933559 0.000000 -0.000000 0.000000 -1.393912 1.707088 2.088413 2.448048 -3.484401 5.145938 0.614269 0.269037 -5.340218 -3.053099 9.906299 2.828451 -0.142946 8.560227 -5.830491 -21.271391 -1.327430 -0.778000 -63.411368 -3.113796 16.218659 5.873098 -20.600683 7.750470 -6.973839 -5.096371 10.597698 24.322297 6.330648 2.487758 53.936618 5.607202 17.288523 -1.658490 19.318096 15.663591 8.810874 1.956915 18.913711 
0.162149 -0.458742 0.998800 -9.884601 1.474568 89.032240 0.859890 0.270500 -2.171963 -4.668377 -4.486699 4.782959 2.772656 11.637590 -8.777587 0.000000 -0.000000 0.000000 0.749356 1.001781 -4.639098 1.258348 4.523238 10.649287 3.199315 -3.372859 -7.948944 0.000000 -0.000000 0.000000 -1.403433 1.709522 1.811174 2.361572 -3.444328 5.176896 0.638355 0.269672 -5.114842 -2.805259 10.004099 2.836631 -0.113746 8.840083 -6.033052 -21.286101 -0.971690 -0.985103 -63.440615 -2.737380 16.137027 5.963255 -19.476384 7.694985 -7.340780 -4.869035 10.506180 24.236301 5.978956 2.332866 53.928418 5.321211 17.308059 -1.882882 18.815847 15.475807 9.010692 1.767933 19.006892 
0.161517 -0.459561 0.998758 -9.775682 1.458961 89.033258 0.843350 0.268003 -2.235654 -4.634910 -4.577835 4.977834 2.671798 11.686844 -8.808449 0.000000 -0.000000 0.000000 0.813697 1.080167 -4.529988 1.197411 4.543559 10.587303 3.192384 -3.558988 -7.961091 0.000000 -0.000000 0.000000 -1.474867 1.725932 1.635069 2.379235 -3.481716 5.271474 0.578577 0.302981 -5.021146 -2.697379 9.641769 3.231850 0.090479 8.443500 -7.123314 -21.257898 -0.562091 -1.339804 -63.459381 -2.324494 16.189890 6.068605 -18.226190 7.243508 -7.712334 -4.590877 10.851340 24.143578 5.622953 1.950968 53.944988 4.889914 17.185502 -1.991399 18.225228 15.217840 9.080517 1.579879 19.256117 
0.160569 -0.461037 0.998734 -9.612916 1.449552 88.898377 0.831889 0.254876 -2.007223 -4.592475 -4.766775 4.993605 2.641851 11.850563 -8.876258 0.000000 -0.000000 0.000000 0.907021 1.068592 -4.192112 1.160769 4.698485 10.471493 3.108767 -3.824938 -8.075740 0.000000 -0.000000 0.000000 -1.487935 1.799466 1.612767 2.327920 -3.450476 5.090529 0.524638 0.347133 -4.788136 -2.235911 9.645801 3.403779 0.283155 8.770073 -7.869549 -21.196012 0.095479 -1.730875 -63.448789 -1.713182 16.059769 6.186484 -16.243982 6.940052 -8.185409 -4.197906 11.038062 23.920616 5.066134 1.544361 54.026388 4.280505 17.146808 -2.183352 17.341727 14.971043 9.185297 1.397768 19.291914 
0.160258 -0.461323 0.998734 -9.510223 1.440382 88.868049 0.822012 0.230181 -1.984008 -4.582719 -4.827923 5.026548 2.621522 11.871473 -8.872630 0.000000 -0.000000 0.000000 0.936520 1.063681 -4.131589 1.150025 4.690866 10.477424 3.083412 -3.936691 -8.080903 0.000000 -0.000000 0.000000 -1.497469 1.843297 1.628688 2.311457 -3.424118 5.009009 0.513168 0.348963 -4.725924 -2.052724 9.700995 3.402164 0.359065 8.945904 -8.066507 -21.150063 0.249088 -1.829833 -63.472341 -1.567658 15.988006 6.253606 -15.505245 6.752149 -8.324484 -4.088356 11.049298 23.819779 4.918963 1.424420 54.101532 4.065320 17.113740 -2.276472 17.009243 14.854252 9.299353 1.318295 19.246073 
0.159700 -0.462062 0.998568 -9.269528 1.371579 88.876048 0.730598 0.193240 -1.997801 -4.553018 -5.131880 5.099758 2.633627 11.982391 -8.891535 0.000000 -0.000000 0.000000 0.932806 0.931477 -4.135433 1.132967 4.741151 10.618130 3.074912 -4.141985 -8.328942 0.000000 -0.000000 0.000000 -1.568179 1.951392 1.452883 2.282420 -3.386657 4.953809 0.508836 0.374290 -4.657453 -1.744860 9.774432 3.415266 0.579208 9.155443 -8.220401 -21.003349 0.425151 -1.886819 -63.584971 -1.296293 15.879534 6.423103 -13.973156 6.335448 -8.595415 -3.707909 11.133660 23.587141 4.700450 1.315099 54.335280 3.636271 17.062884 -2.518498 16.289159 14.722526 9.543954 1.046630 19.205156 
0.159111 -0.462666 0.998651 -8.901786 1.398083 88.706870 0.748946 0.134726 -1.929570 -4.545442 -5.394271 5.328218 2.576854 12.055110 -8.918781 0.000000 -0.000000 0.000000 1.017516 1.097838 -3.945029 1.128780 4.654306 10.824684 2.875754 -4.244840 -8.505774 0.000000 -0.000000 0.000000 -1.557886 1.936537 1.500816 2.279741 -3.321903 4.983686 0.559745 0.455819 -4.669525 -1.578672 9.893189 3.441641 0.857522 9.327446 -8.434250 -21.110955 0.359026 -1.836381 -63.483859 -1.072839 15.626100 6.560304 -12.586206 5.752610 -8.496884 -3.587969 11.154029 23.620215 4.692515 1.362861 54.179688 3.294328 16.858916 -2.730346 15.816619 14.319243 9.258820 1.215497 19.247887 
0.158284 -0.463111 0.998627 -8.550777 1.388273 88.563788 0.811843 0.089349 -1.792471 -4.618181 -5.607458 5.441589 2.559455 12.043720 -8.982457 0.000000 -0.000000 0.000000 1.065062 1.103952 -3.718320 1.167132 4.895363 11.251776 2.882622 -4.324909 -8.172080 0.000000 -0.000000 0.000000 -1.542970 1.941747 1.602826 2.236605 -3.239132 4.855735 0.542844 0.461541 -4.611849 -1.253645 9.846639 3.402346 0.974221 9.457911 -8.362564 -21.089707 0.464596 -1.801358 -63.384731 -0.943792 15.270819 6.550501 -11.438747 5.233979 -8.266608 -3.436026 10.844762 23.618107 4.701538 1.376412 54.215873 3.107471 16.905001 -2.784557 15.119531 14.170047 9.230395 1.199293 19.245353 
0.157651 -0.462975 0.998568 -8.159482 1.316401 88.563337 0.734911 -0.056853 -1.903848 -4.572282 -5.692263 5.600378 2.582039 12.010969 -8.954998 0.000000 -0.000000 0.000000 1.067042 1.100942 -3.711694 1.154259 4.785319 11.349038 2.827141 -4.575768 -8.194517 0.000000 -0.000000 0.000000 -1.591303 2.035107 1.479632 2.236849 -3.224785 4.923019 0.538479 0.463294 -4.614590 -1.094450 9.757913 3.454597 1.090962 9.316604 -8.491009 -21.188082 0.450547 -1.741097 -63.200293 -0.888276 15.042833 6.604034 -10.582886 4.759153 -8.480742 -3.323537 10.828210 23.708880 4.731262 1.424420 54.191803 3.050018 16.810687 -2.971990 14.569358 14.136482 9.414609 1.091760 19.587685 
0.156892 -0.463185 0.998533 -7.722822 1.237734 88.492947 0.663203 -0.123373 -1.901132 -4.539128 -5.876590 5.696279 2.566637 11.939892 -8.950928 0.000000 -0.000000 0.000000 1.072963 1.008667 -3.611888 1.110043 4.676786 11.436038 2.778561 -4.773846 -8.284777 0.000000 -0.000000 0.000000 -1.655403 2.096620 1.491734 2.255367 -3.237354 4.898808 0.560644 0.490935 -4.615308 -1.110740 9.527909 3.499111 1.209154 9.030827 -8.547547 -21.205200 0.494285 -1.719616 -63.055699 -0.812023 14.972305 6.586545 -10.307910 4.528727 -8.593850 -3.221245 10.780791 23.782802 4.788459 1.388106 54.169223 2.936541 16.787008 -3.132612 14.357155 13.995141 9.227226 1.137177 19.701762 
0.156166 -0.463520 0.998481 -7.242808 1.178440 88.337358 0.611651 -0.138429 -1.761630 -4.497614 -6.120748 5.746682 2.543780 11.793861 -8.992598 0.000000 -0.000000 0.000000 1.053113 0.869416 -3.323950 1.104066 4.541526 11.387919 2.738352 -4.855564 -8.435727 0.000000 -0.000000 0.000000 -1.644121 2.086542 1.585532 2.240637 -3.251518 4.877484 0.577783 0.452261 -4.579035 -1.163243 9.363452 3.430926 1.305323 8.695568 -8.509285 -21.196475 0.624185 -1.590900 -62.873263 -0.775575 14.699002 6.541121 -10.798460 4.407492 -8.801597 -3.472163 10.450541 23.848547 4.846787 1.369613 54.149281 2.910335 16.711839 -3.233958 14.448827 13.990194 9.033802 1.304116 19.791092 
0.155495 -0.463182 0.998389 -6.787846 1.115270 88.274628 0.554326 -0.243168 -1.903131 -4.470968 -6.305276 6.038934 2.491869 11.675670 -8.997108 0.000000 -0.000000 0.000000 1.032093 0.767976 -3.248413 1.115371 4.335212 11.466044 2.691436 -5.009696 -8.537037 0.000000 -0.000000 0.000000 -1.634988 2.082273 1.758323 2.228568 -3.243510 4.735765 0.606892 0.409753 -4.538174 -1.224127 9.178962 3.223586 1.265973 8.394555 -8.281078 -21.125587 0.817191 -1.548591 -62.719821 -0.706147 14.627855 6.419280 -11.934972 4.515611 -8.672867 -3.765010 10.089124 23.895953 4.806176 1.298610 54.066231 2.981600 16.664844 -3.250957 14.949600 13.938257 8.866497 1.584001 19.625429 
0.155017 -0.462301 0.998308 -6.248809 1.055369 88.249034 0.475132 -0.477785 -2.155138 -4.417502 -6.448306 6.376981 2.440133 11.543792 -9.034576 0.000000 -0.000000 0.000000 1.006194 0.701039 -3.290935 1.117536 4.091673 11.630353 2.640585 -5.119568 -8.630362 0.000000 -0.000000 0.000000 -1.582626 2.101192 1.921729 2.208469 -3.252968 4.615726 0.614001 0.350850 -4.468883 -1.386399 8.921067 3.084256 1.169712 7.992627 -8.201404 -21.047525 0.847202 -1.516624 -62.550087 -0.745166 14.644674 6.261725 -13.441947 4.640516 -8.453960 -4.038836 9.758689 23.890163 4.847507 1.271967 54.000775 3.104469 16.589322 -3.250371 15.829503 13.837222 8.679722 1.786566 19.346087 
0.154503 -0.461103 0.998341 -5.698041 1.013181 88.221130 0.470195 -0.722538 -2.425123 -4.457558 -6.615318 6.759291 2.379106 11.347840 -9.090581 0.000000 -0.000000 0.000000 1.035510 0.693110 -3.320264 1.048342 3.722747 11.742574 2.533817 -5.278974 -8.663145 0.000000 -0.000000 0.000000 -1.592201 2.124729 2.132018 2.261305 -3.261803 4.571841 0.671661 0.283551 -4.448865 -1.564331 8.622468 2.893752 1.095777 7.509510 -8.010471 -21.161698 0.778989 -1.515520 -62.231710 -0.820776 14.681867 6.124157 -15.316575 4.816889 -8.195088 -4.341429 9.535911 24.008041 4.835620 1.225168 53.686251 3.191415 16.451729 -3.351825 17.342098 13.743175 8.621211 2.060740 19.143195 
0.153687 -0.460089 0.998457 -5.303294 0.982438 88.097299 0.549472 -0.825354 -2.505344 -4.568414 -6.832636 7.068336 2.356730 11.139175 -9.213981 0.000000 -0.000000 0.000000 1.099699 0.661609 -3.201208 0.969145 3.431195 11.798640 2.427510 -5.340726 -8.689507 0.000000 -0.000000 0.000000 -1.637362 2.213250 2.441576 2.317777 -3.215668 4.577955 0.739187 0.233540 -4.547400 -1.732364 8.276087 2.855258 1.062440 7.115406 -7.646371 -21.236857 0.558087 -1.291349 -61.940230 -0.905071 14.680489 6.055088 -17.656830 5.006844 -7.799955 -4.543919 9.042098 24.068684 5.017427 1.377718 53.374540 3.258963 16.256463 -3.414399 19.302574 13.322545 8.493601 2.449982 18.296207 
0.152710 -0.457974 0.998800 -4.768250 0.994517 87.886937 0.663752 -1.110086 -2.797812 -4.653800 -7.043522 7.789021 2.267187 10.926955 -9.371410 0.000000 -0.000000 0.000000 1.268123 0.605400 -3.182220 0.843881 3.129049 12.123827 2.330454 -5.476679 -8.787162 0.000000 -0.000000 0.000000 -1.675930 2.285347 3.142394 2.372594 -3.270262 4.560553 0.827725 0.176229 -4.724860 -1.879022 7.859111 2.926913 1.017110 6.742500 -7.049533 -21.314612 0.201244 -1.053507 -61.533629 -1.008266 14.858290 5.836979 -20.458751 5.302429 -7.248934 -4.879709 8.340196 23.986257 5.186965 1.382350 53.166564 3.296074 16.065877 -3.517537 22.100731 12.539485 8.411777 3.092898 16.666623 
0.151596 -0.454518 0.999101 -4.209953 1.015749 87.715517 0.713263 -1.449134 -3.362568 -4.639767 -7.238685 8.774022 2.390638 10.777620 -9.677172 0.000000 -0.000000 0.000000 1.511485 0.637187 -3.564018 0.640542 2.835918 12.988732 2.252808 -5.656686 -9.164170 0.000000 -0.000000 0.000000 -1.646222 2.268633 4.026624 2.355403 -3.383153 4.591121 0.818386 0.136371 -4.664250 -1.983340 7.571412 2.713289 1.097171 6.473063 -6.168535 -21.154991 -0.210191 -0.985077 -61.227846 -1.248772 15.182610 5.740112 -23.709801 6.081434 -6.580421 -5.415908 7.983425 23.815450 5.306337 1.333319 53.102135 3.660394 15.818122 -3.775741 25.943903 11.917300 8.087439 3.829705 15.007796 
0.149348 -0.445160 0.999603 -3.358410 0.926198 87.579173 0.405145 -2.128114 -5.055644 -4.296657 -7.271966 11.110503 2.690371 10.809608 -10.026333 0.000000 -0.000000 0.000000 2.143031 1.234156 -5.708177 -0.031269 2.446293 16.428380 2.046888 -6.496099 -10.218277 0.000000 -0.000000 0.000000 -1.800409 2.081657 6.087313 2.310002 -3.588751 4.810970 0.833606 -0.017449 -4.659801 -1.999698 7.688614 2.466998 0.925366 6.740127 -5.146047 -20.730770 -1.022493 -1.020010 -60.879534 -1.604430 15.745261 5.926628 -29.152313 6.170228 -5.797129 -6.022468 6.876905 23.468933 6.023148 0.964652 53.217678 4.462584 15.804143 -4.550393 32.588732 10.288678 7.433828 5.087692 12.087650 
